<svg width="135" height="40" viewBox="0 0 135 40" fill="none" xmlns="http://www.w3.org/2000/svg">
<path d="M34.1422 5.85781C30.3647 2.08031 25.3422 0 20 0C14.6578 0 9.63531 2.08031 5.85781 5.85781C2.08031 9.63531 0 14.6578 0 20C0 25.3422 2.08039 30.3646 5.85781 34.1422C9.63523 37.9198 14.6578 40 20 40C25.3422 40 30.3647 37.9197 34.1422 34.1422C37.9197 30.3647 40 25.3422 40 20C40 14.6578 37.9196 9.63539 34.1422 5.85781Z" fill="#27847A"/>
<g clip-path="url(#clip0_35212_417)">
<path d="M20.5714 8V33.1429" stroke="white" stroke-width="2" stroke-linecap="round" stroke-linejoin="round"/>
<path d="M26.2857 12.5714H17.7143C16.6534 12.5714 15.636 12.9929 14.8859 13.743C14.1357 14.4931 13.7143 15.5106 13.7143 16.5714C13.7143 17.6323 14.1357 18.6497 14.8859 19.3999C15.636 20.15 16.6534 20.5714 17.7143 20.5714H23.4286C24.4894 20.5714 25.5069 20.9929 26.257 21.743C27.0072 22.4932 27.4286 23.5106 27.4286 24.5714C27.4286 25.6323 27.0072 26.6497 26.257 27.3999C25.5069 28.15 24.4894 28.5714 23.4286 28.5714H13.7143" stroke="white" stroke-width="2" stroke-linecap="round" stroke-linejoin="round"/>
</g>
<path d="M58.204 13.228V23H56.244V16.644L53.626 23H52.142L49.51 16.644V23H47.55V13.228H49.776L52.884 20.494L55.992 13.228H58.204ZM67.5618 15.244L62.7598 26.668H60.6738L62.3538 22.804L59.2458 15.244H61.4438L63.4458 20.662L65.4758 15.244H67.5618ZM77.9883 13.228V14.81H73.9143V17.316H77.0363V18.87H73.9143V23H71.9543V13.228H77.9883ZM80.3721 14.32C80.0268 14.32 79.7374 14.2127 79.5041 13.998C79.2801 13.774 79.1681 13.4987 79.1681 13.172C79.1681 12.8453 79.2801 12.5747 79.5041 12.36C79.7374 12.136 80.0268 12.024 80.3721 12.024C80.7174 12.024 81.0021 12.136 81.2261 12.36C81.4594 12.5747 81.5761 12.8453 81.5761 13.172C81.5761 13.4987 81.4594 13.774 81.2261 13.998C81.0021 14.2127 80.7174 14.32 80.3721 14.32ZM81.3381 15.244V23H79.3781V15.244H81.3381ZM87.5726 15.132C88.4966 15.132 89.2433 15.426 89.8126 16.014C90.3819 16.5927 90.6666 17.4047 90.6666 18.45V23H88.7066V18.716C88.7066 18.1 88.5526 17.6287 88.2446 17.302C87.9366 16.966 87.5166 16.798 86.9846 16.798C86.4433 16.798 86.0139 16.966 85.6966 17.302C85.3886 17.6287 85.2346 18.1 85.2346 18.716V23H83.2746V15.244H85.2346V16.21C85.4959 15.874 85.8273 15.6127 86.2286 15.426C86.6393 15.23 87.0873 15.132 87.5726 15.132ZM92.0265 19.094C92.0265 18.31 92.1805 17.6147 92.4885 17.008C92.8058 16.4013 93.2305 15.9347 93.7625 15.608C94.3038 15.2813 94.9058 15.118 95.5685 15.118C96.1471 15.118 96.6511 15.2347 97.0805 15.468C97.5191 15.7013 97.8691 15.9953 98.1305 16.35V15.244H100.104V23H98.1305V21.866C97.8785 22.23 97.5285 22.5333 97.0805 22.776C96.6418 23.0093 96.1331 23.126 95.5545 23.126C94.9011 23.126 94.3038 22.958 93.7625 22.622C93.2305 22.286 92.8058 21.8147 92.4885 21.208C92.1805 20.592 92.0265 19.8873 92.0265 19.094ZM98.1305 19.122C98.1305 18.646 98.0371 18.24 97.8505 17.904C97.6638 17.5587 97.4118 17.2973 97.0945 17.12C96.7771 16.9333 96.4365 16.84 96.0725 16.84C95.7085 16.84 95.3725 16.9287 95.0645 17.106C94.7565 17.2833 94.5045 17.5447 94.3085 17.89C94.1218 18.226 94.0285 18.6273 94.0285 19.094C94.0285 19.5607 94.1218 19.9713 94.3085 20.326C94.5045 20.6713 94.7565 20.9373 95.0645 21.124C95.3818 21.3107 95.7178 21.404 96.0725 21.404C96.4365 21.404 96.7771 21.3153 97.0945 21.138C97.4118 20.9513 97.6638 20.69 97.8505 20.354C98.0371 20.0087 98.1305 19.598 98.1305 19.122ZM106.317 15.132C107.241 15.132 107.987 15.426 108.557 16.014C109.126 16.5927 109.411 17.4047 109.411 18.45V23H107.451V18.716C107.451 18.1 107.297 17.6287 106.989 17.302C106.681 16.966 106.261 16.798 105.729 16.798C105.187 16.798 104.758 16.966 104.441 17.302C104.133 17.6287 103.979 18.1 103.979 18.716V23H102.019V15.244H103.979V16.21C104.24 15.874 104.571 15.6127 104.973 15.426C105.383 15.23 105.831 15.132 106.317 15.132ZM110.771 19.122C110.771 18.3193 110.934 17.6193 111.261 17.022C111.587 16.4153 112.04 15.9487 112.619 15.622C113.197 15.286 113.86 15.118 114.607 15.118C115.568 15.118 116.361 15.3607 116.987 15.846C117.621 16.322 118.046 16.994 118.261 17.862H116.147C116.035 17.526 115.843 17.2647 115.573 17.078C115.311 16.882 114.985 16.784 114.593 16.784C114.033 16.784 113.589 16.9893 113.263 17.4C112.936 17.8013 112.773 18.3753 112.773 19.122C112.773 19.8593 112.936 20.4333 113.263 20.844C113.589 21.2453 114.033 21.446 114.593 21.446C115.386 21.446 115.904 21.0913 116.147 20.382H118.261C118.046 21.222 117.621 21.8893 116.987 22.384C116.352 22.8787 115.559 23.126 114.607 23.126C113.86 23.126 113.197 22.9627 112.619 22.636C112.04 22.3 111.587 21.8333 111.261 21.236C110.934 20.6293 110.771 19.9247 110.771 19.122ZM126.906 18.954C126.906 19.234 126.888 19.486 126.85 19.71H121.18C121.227 20.27 121.423 20.7087 121.768 21.026C122.114 21.3433 122.538 21.502 123.042 21.502C123.77 21.502 124.288 21.1893 124.596 20.564H126.71C126.486 21.3107 126.057 21.9267 125.422 22.412C124.788 22.888 124.008 23.126 123.084 23.126C122.338 23.126 121.666 22.9627 121.068 22.636C120.48 22.3 120.018 21.8287 119.682 21.222C119.356 20.6153 119.192 19.9153 119.192 19.122C119.192 18.3193 119.356 17.6147 119.682 17.008C120.009 16.4013 120.466 15.9347 121.054 15.608C121.642 15.2813 122.319 15.118 123.084 15.118C123.822 15.118 124.48 15.2767 125.058 15.594C125.646 15.9113 126.099 16.364 126.416 16.952C126.743 17.5307 126.906 18.198 126.906 18.954ZM124.876 18.394C124.867 17.89 124.685 17.4887 124.33 17.19C123.976 16.882 123.542 16.728 123.028 16.728C122.543 16.728 122.132 16.8773 121.796 17.176C121.47 17.4653 121.269 17.8713 121.194 18.394H124.876ZM131.305 23.126C130.67 23.126 130.101 23.014 129.597 22.79C129.093 22.5567 128.692 22.244 128.393 21.852C128.104 21.46 127.945 21.026 127.917 20.55H129.891C129.928 20.8487 130.073 21.096 130.325 21.292C130.586 21.488 130.908 21.586 131.291 21.586C131.664 21.586 131.954 21.5113 132.159 21.362C132.374 21.2127 132.481 21.0213 132.481 20.788C132.481 20.536 132.35 20.3493 132.089 20.228C131.837 20.0973 131.431 19.9573 130.871 19.808C130.292 19.668 129.816 19.5233 129.443 19.374C129.079 19.2247 128.762 18.996 128.491 18.688C128.23 18.38 128.099 17.9647 128.099 17.442C128.099 17.0127 128.22 16.6207 128.463 16.266C128.715 15.9113 129.07 15.6313 129.527 15.426C129.994 15.2207 130.54 15.118 131.165 15.118C132.089 15.118 132.826 15.3513 133.377 15.818C133.928 16.2753 134.231 16.896 134.287 17.68H132.411C132.383 17.372 132.252 17.1293 132.019 16.952C131.795 16.7653 131.492 16.672 131.109 16.672C130.754 16.672 130.479 16.7373 130.283 16.868C130.096 16.9987 130.003 17.1807 130.003 17.414C130.003 17.6753 130.134 17.876 130.395 18.016C130.656 18.1467 131.062 18.282 131.613 18.422C132.173 18.562 132.635 18.7067 132.999 18.856C133.363 19.0053 133.676 19.2387 133.937 19.556C134.208 19.864 134.348 20.2747 134.357 20.788C134.357 21.236 134.231 21.6373 133.979 21.992C133.736 22.3467 133.382 22.6267 132.915 22.832C132.458 23.028 131.921 23.126 131.305 23.126Z" fill="white"/>
<defs>
<clipPath id="clip0_35212_417">
<rect width="27.4286" height="27.4286" fill="white" transform="translate(6.85715 6.85714)"/>
</clipPath>
</defs>
</svg>
