<svg width="154" height="40" viewBox="0 0 154 40" fill="none" xmlns="http://www.w3.org/2000/svg">
<path d="M34.1422 5.85781C30.3647 2.08031 25.3422 0 20 0C14.6578 0 9.63531 2.08031 5.85781 5.85781C2.08031 9.63531 0 14.6578 0 20C0 25.3422 2.08039 30.3646 5.85781 34.1422C9.63523 37.9198 14.6578 40 20 40C25.3422 40 30.3647 37.9197 34.1422 34.1422C37.9197 30.3647 40 25.3422 40 20C40 14.6578 37.9196 9.63539 34.1422 5.85781Z" fill="#27847A"/>
<g clip-path="url(#clip0_35212_417)">
<path d="M20.5714 8V33.1429" stroke="white" stroke-width="2" stroke-linecap="round" stroke-linejoin="round"/>
<path d="M26.2857 12.5714H17.7143C16.6534 12.5714 15.636 12.9929 14.8859 13.743C14.1357 14.4931 13.7143 15.5106 13.7143 16.5714C13.7143 17.6323 14.1357 18.6497 14.8859 19.3999C15.636 20.15 16.6534 20.5714 17.7143 20.5714H23.4286C24.4894 20.5714 25.5069 20.9929 26.257 21.743C27.0072 22.4932 27.4286 23.5106 27.4286 24.5714C27.4286 25.6323 27.0072 26.6497 26.257 27.3999C25.5069 28.15 24.4894 28.5714 23.4286 28.5714H13.7143" stroke="white" stroke-width="2" stroke-linecap="round" stroke-linejoin="round"/>
</g>
<path d="M47.6216 24.92V14.88C47.6216 14.5867 47.5082 14.3933 47.2816 14.3C47.0682 14.2067 46.7882 14.16 46.4416 14.16H46.2216V12.8H52.9016V14.16H52.6816C52.3349 14.16 52.0482 14.2067 51.8216 14.3C51.6082 14.3933 51.5016 14.5867 51.5016 14.88V24.92C51.5016 25.2133 51.6082 25.4067 51.8216 25.5C52.0482 25.5933 52.3349 25.64 52.6816 25.64H52.9016V27H46.2216V25.64H46.4416C46.7882 25.64 47.0682 25.5933 47.2816 25.5C47.5082 25.4067 47.6216 25.2133 47.6216 24.92ZM54.8913 19.92H61.4313V22.5H54.8913V19.92ZM68.6886 14.38V24.92C68.6886 25.0933 68.7286 25.2333 68.8086 25.34C68.9019 25.4333 69.0153 25.5 69.1486 25.54C69.2953 25.58 69.4553 25.6067 69.6286 25.62C69.8019 25.6333 69.9686 25.64 70.1286 25.64H70.4686V27H63.4286V25.64H63.6486C63.9953 25.64 64.2753 25.5933 64.4886 25.5C64.7153 25.4067 64.8286 25.2133 64.8286 24.92V14.88C64.8286 14.5867 64.7153 14.3933 64.4886 14.3C64.2753 14.2067 63.9953 14.16 63.6486 14.16H63.4286V12.8H74.5286V16.86H72.8086L72.6686 15.24C72.6553 15 72.5686 14.82 72.4086 14.7C72.2486 14.5667 72.0153 14.48 71.7086 14.44C71.4153 14.4 71.0553 14.38 70.6286 14.38H68.6886ZM68.1286 19.18C68.6619 19.1533 69.1819 19.1267 69.6886 19.1C70.2086 19.0733 70.7286 19.0467 71.2486 19.02C71.7686 18.9933 72.2886 18.9733 72.8086 18.96V20.8C72.2886 20.76 71.7686 20.7333 71.2486 20.72C70.7286 20.6933 70.2086 20.6667 69.6886 20.64C69.1686 20.6 68.6486 20.5733 68.1286 20.56V19.18ZM78.6295 15.38C78.0295 15.38 77.5495 15.2333 77.1895 14.94C76.8295 14.6467 76.6495 14.24 76.6495 13.72C76.6495 13.2 76.8295 12.8 77.1895 12.52C77.5495 12.2267 78.0295 12.08 78.6295 12.08C79.2429 12.08 79.7229 12.2267 80.0695 12.52C80.4295 12.8 80.6095 13.2 80.6095 13.72C80.6095 14.24 80.4295 14.6467 80.0695 14.94C79.7229 15.2333 79.2429 15.38 78.6295 15.38ZM80.5095 16.76V25.12C80.5095 25.36 80.6095 25.52 80.8095 25.6C81.0229 25.68 81.2762 25.72 81.5695 25.72H81.5895V27H75.7695V25.72H75.7895C76.0962 25.72 76.3495 25.68 76.5495 25.6C76.7495 25.52 76.8495 25.36 76.8495 25.12V18.8C76.8495 18.5867 76.7762 18.44 76.6295 18.36C76.4962 18.28 76.2629 18.2067 75.9295 18.14L75.7695 18.1V16.76H80.5095ZM82.4102 27V25.72H82.4302C82.6302 25.72 82.8102 25.7067 82.9702 25.68C83.1302 25.64 83.2568 25.58 83.3502 25.5C83.4435 25.4067 83.4902 25.28 83.4902 25.12V18.8C83.4902 18.6533 83.4568 18.5467 83.3902 18.48C83.3235 18.4 83.2235 18.34 83.0902 18.3C82.9568 18.2467 82.7835 18.1933 82.5702 18.14L82.4102 18.1V16.76H86.8902V18.98H87.1302V25.56C87.1302 25.6 87.1768 25.6333 87.2702 25.66C87.3768 25.6867 87.5035 25.7067 87.6502 25.72C87.7968 25.72 87.9235 25.72 88.0302 25.72H88.0902V27H82.4102ZM94.9902 27H89.3102V25.72H89.3302C89.4502 25.72 89.5835 25.72 89.7302 25.72C89.8768 25.7067 90.0035 25.6867 90.1102 25.66C90.2168 25.62 90.2702 25.5867 90.2702 25.56V20C90.2702 19.68 90.2302 19.4133 90.1502 19.2C90.0835 18.9867 89.9702 18.8333 89.8102 18.74C89.6502 18.6333 89.4368 18.58 89.1702 18.58C88.8502 18.58 88.5435 18.6667 88.2502 18.84C87.9702 19.0133 87.7035 19.28 87.4502 19.64C87.1968 19.9867 86.9502 20.4267 86.7102 20.96V19.04C86.9635 18.52 87.2702 18.08 87.6302 17.72C88.0035 17.3467 88.4302 17.06 88.9102 16.86C89.4035 16.66 89.9435 16.56 90.5302 16.56C91.2102 16.56 91.8035 16.6933 92.3102 16.96C92.8168 17.2133 93.2102 17.6 93.4902 18.12C93.7702 18.6267 93.9102 19.26 93.9102 20.02V25.12C93.9102 25.28 93.9568 25.4067 94.0502 25.5C94.1435 25.58 94.2635 25.64 94.4102 25.68C94.5702 25.7067 94.7502 25.72 94.9502 25.72H94.9902V27ZM102.648 20.84V22.08C102.208 22.1333 101.808 22.2133 101.448 22.32C101.088 22.4133 100.775 22.5267 100.508 22.66C100.255 22.7933 100.041 22.9467 99.8681 23.12C99.6948 23.28 99.5681 23.4667 99.4881 23.68C99.4081 23.88 99.3681 24.1 99.3681 24.34C99.3681 24.6333 99.4148 24.88 99.5081 25.08C99.6148 25.2667 99.7615 25.4133 99.9481 25.52C100.135 25.6133 100.348 25.66 100.588 25.66C100.908 25.66 101.195 25.58 101.448 25.42C101.701 25.2467 101.921 25.0067 102.108 24.7C102.308 24.38 102.488 24.0133 102.648 23.6V25.08C102.448 25.5333 102.195 25.92 101.888 26.24C101.581 26.5467 101.215 26.7867 100.788 26.96C100.361 27.12 99.8681 27.2 99.3081 27.2C98.6148 27.2 98.0148 27.1 97.5081 26.9C97.0148 26.6867 96.6281 26.38 96.3481 25.98C96.0815 25.5667 95.9481 25.0667 95.9481 24.48C95.9481 23.9333 96.0881 23.46 96.3681 23.06C96.6615 22.6467 97.0881 22.3 97.6481 22.02C98.2215 21.74 98.9215 21.5067 99.7481 21.32C100.588 21.1333 101.555 20.9733 102.648 20.84ZM102.448 27V25.02L102.208 25.04V19.66C102.208 19.3 102.155 19.0067 102.048 18.78C101.941 18.5533 101.781 18.3867 101.568 18.28C101.355 18.1733 101.088 18.12 100.768 18.12C100.288 18.12 99.8881 18.2267 99.5681 18.44C99.2615 18.6533 99.0281 18.9133 98.8681 19.22C98.7348 19.0867 98.6548 18.96 98.6281 18.84C98.6148 18.7067 98.6348 18.5867 98.6881 18.48C98.7548 18.36 98.8548 18.26 98.9881 18.18C99.1348 18.1 99.3081 18.04 99.5081 18V20.08H96.6481V17.92C96.8481 17.76 97.1415 17.58 97.5281 17.38C97.9281 17.1667 98.4281 16.98 99.0281 16.82C99.6281 16.6467 100.335 16.56 101.148 16.56C101.815 16.56 102.428 16.6333 102.988 16.78C103.561 16.9133 104.055 17.12 104.468 17.4C104.881 17.68 105.201 18.0467 105.428 18.5C105.655 18.94 105.768 19.4733 105.768 20.1V25.06C105.768 25.1933 105.808 25.3 105.888 25.38C105.968 25.46 106.081 25.52 106.228 25.56C106.375 25.6 106.555 25.6333 106.768 25.66L106.848 25.68V27H102.448ZM107.566 27V25.72H107.586C107.786 25.72 107.966 25.7067 108.126 25.68C108.286 25.64 108.413 25.58 108.506 25.5C108.6 25.4067 108.646 25.28 108.646 25.12V18.8C108.646 18.6533 108.613 18.5467 108.546 18.48C108.48 18.4 108.38 18.34 108.246 18.3C108.113 18.2467 107.94 18.1933 107.726 18.14L107.566 18.1V16.76H112.046V18.98H112.286V25.56C112.286 25.6 112.333 25.6333 112.426 25.66C112.533 25.6867 112.66 25.7067 112.806 25.72C112.953 25.72 113.08 25.72 113.186 25.72H113.246V27H107.566ZM120.146 27H114.466V25.72H114.486C114.606 25.72 114.74 25.72 114.886 25.72C115.033 25.7067 115.16 25.6867 115.266 25.66C115.373 25.62 115.426 25.5867 115.426 25.56V20C115.426 19.68 115.386 19.4133 115.306 19.2C115.24 18.9867 115.126 18.8333 114.966 18.74C114.806 18.6333 114.593 18.58 114.326 18.58C114.006 18.58 113.7 18.6667 113.406 18.84C113.126 19.0133 112.86 19.28 112.606 19.64C112.353 19.9867 112.106 20.4267 111.866 20.96V19.04C112.12 18.52 112.426 18.08 112.786 17.72C113.16 17.3467 113.586 17.06 114.066 16.86C114.56 16.66 115.1 16.56 115.686 16.56C116.366 16.56 116.96 16.6933 117.466 16.96C117.973 17.2133 118.366 17.6 118.646 18.12C118.926 18.6267 119.066 19.26 119.066 20.02V25.12C119.066 25.28 119.113 25.4067 119.206 25.5C119.3 25.58 119.42 25.64 119.566 25.68C119.726 25.7067 119.906 25.72 120.106 25.72H120.146V27ZM127.484 25.56C127.951 25.56 128.358 25.4533 128.704 25.24C129.064 25.0267 129.371 24.76 129.624 24.44C129.878 24.1067 130.091 23.7867 130.264 23.48L131.504 24.4C131.211 24.9333 130.858 25.4133 130.444 25.84C130.044 26.2667 129.551 26.6 128.964 26.84C128.391 27.08 127.698 27.2 126.884 27.2C125.778 27.2 124.784 26.9867 123.904 26.56C123.038 26.1333 122.358 25.52 121.864 24.72C121.371 23.92 121.124 22.9733 121.124 21.88C121.124 20.7867 121.371 19.8467 121.864 19.06C122.358 18.26 123.044 17.6467 123.924 17.22C124.818 16.78 125.864 16.56 127.064 16.56C127.851 16.56 128.524 16.6333 129.084 16.78C129.658 16.9267 130.124 17.0933 130.484 17.28C130.858 17.4667 131.118 17.6267 131.264 17.76V20.48H128.484V17.92C128.671 17.9467 128.818 18.0067 128.924 18.1C129.031 18.18 129.104 18.28 129.144 18.4C129.184 18.52 129.191 18.6467 129.164 18.78C129.138 18.9 129.084 19 129.004 19.08C128.844 18.8133 128.611 18.5933 128.304 18.42C127.998 18.2467 127.644 18.16 127.244 18.16C126.738 18.16 126.304 18.3133 125.944 18.62C125.598 18.9133 125.331 19.34 125.144 19.9C124.971 20.46 124.884 21.12 124.884 21.88C124.884 22.4533 124.938 22.9667 125.044 23.42C125.164 23.8733 125.338 24.26 125.564 24.58C125.791 24.9 126.064 25.1467 126.384 25.32C126.704 25.48 127.071 25.56 127.484 25.56ZM136.269 21.92C136.269 22.5067 136.323 23.0267 136.429 23.48C136.536 23.92 136.696 24.3 136.909 24.62C137.123 24.9267 137.403 25.16 137.749 25.32C138.096 25.4667 138.496 25.54 138.949 25.54C139.416 25.54 139.823 25.4467 140.169 25.26C140.516 25.0733 140.809 24.84 141.049 24.56C141.289 24.28 141.496 23.9933 141.669 23.7L142.969 24.62C142.703 25.1133 142.363 25.56 141.949 25.96C141.549 26.3467 141.056 26.6533 140.469 26.88C139.883 27.0933 139.189 27.2 138.389 27.2C137.229 27.2 136.209 26.9867 135.329 26.56C134.463 26.1333 133.789 25.5267 133.309 24.74C132.829 23.94 132.589 23 132.589 21.92C132.589 20.84 132.823 19.9 133.289 19.1C133.769 18.3 134.416 17.68 135.229 17.24C136.056 16.7867 136.989 16.56 138.029 16.56C138.869 16.56 139.603 16.6867 140.229 16.94C140.869 17.1933 141.403 17.5667 141.829 18.06C142.269 18.5533 142.596 19.1733 142.809 19.92C143.036 20.6533 143.149 21.52 143.149 22.52H135.909V21.04H140.189L139.749 21.66C139.736 20.9933 139.696 20.4333 139.629 19.98C139.563 19.5267 139.463 19.1733 139.329 18.92C139.196 18.6533 139.029 18.46 138.829 18.34C138.629 18.22 138.389 18.16 138.109 18.16C137.829 18.16 137.576 18.2333 137.349 18.38C137.136 18.5267 136.943 18.7533 136.769 19.06C136.609 19.3667 136.483 19.76 136.389 20.24C136.309 20.7067 136.269 21.2667 136.269 21.92ZM150.268 24.5C150.268 24.2867 150.201 24.1133 150.068 23.98C149.948 23.8333 149.774 23.7133 149.548 23.62C149.334 23.5133 149.088 23.4267 148.808 23.36C148.541 23.28 148.248 23.2 147.928 23.12C147.528 23.0133 147.121 22.8867 146.708 22.74C146.294 22.5933 145.914 22.4067 145.568 22.18C145.221 21.94 144.941 21.6333 144.728 21.26C144.528 20.8733 144.428 20.3933 144.428 19.82C144.428 19.1 144.614 18.5 144.988 18.02C145.374 17.5267 145.901 17.1533 146.568 16.9C147.248 16.6467 148.041 16.52 148.948 16.52C149.694 16.52 150.334 16.58 150.868 16.7C151.401 16.8067 151.834 16.9333 152.168 17.08C152.514 17.2267 152.748 17.3533 152.868 17.46V19.54H150.368V17.84C150.581 17.8133 150.741 17.8333 150.848 17.9C150.954 17.9533 151.014 18.0333 151.028 18.14C151.054 18.2333 151.048 18.34 151.008 18.46C150.981 18.5667 150.941 18.6667 150.888 18.76C150.741 18.6 150.568 18.4667 150.368 18.36C150.181 18.24 149.974 18.1533 149.748 18.1C149.521 18.0467 149.254 18.02 148.948 18.02C148.481 18.02 148.121 18.1133 147.868 18.3C147.614 18.4867 147.488 18.74 147.488 19.06C147.488 19.2733 147.554 19.46 147.688 19.62C147.821 19.7667 148.001 19.8933 148.228 20C148.468 20.0933 148.734 20.18 149.028 20.26C149.321 20.34 149.634 20.4267 149.968 20.52C150.381 20.6267 150.794 20.7533 151.208 20.9C151.634 21.0467 152.028 21.24 152.388 21.48C152.748 21.7067 153.034 22.0067 153.248 22.38C153.461 22.74 153.568 23.1867 153.568 23.72C153.568 24.4667 153.374 25.1 152.988 25.62C152.614 26.1267 152.054 26.52 151.308 26.8C150.561 27.0667 149.648 27.2 148.568 27.2C147.848 27.2 147.194 27.14 146.608 27.02C146.034 26.9133 145.534 26.78 145.108 26.62C144.694 26.4467 144.368 26.2867 144.128 26.14V23.86H146.688V26.16C146.434 26.0533 146.241 25.9267 146.108 25.78C145.988 25.6333 145.908 25.4933 145.868 25.36C145.828 25.2133 145.834 25.0933 145.888 25C145.941 24.8933 146.028 24.8333 146.148 24.82C146.334 25.02 146.548 25.1867 146.788 25.32C147.041 25.4533 147.314 25.5467 147.608 25.6C147.901 25.6533 148.228 25.68 148.588 25.68C148.948 25.68 149.248 25.64 149.488 25.56C149.741 25.48 149.934 25.3533 150.068 25.18C150.201 24.9933 150.268 24.7667 150.268 24.5Z" fill="white"/>
<defs>
<clipPath id="clip0_35212_417">
<rect width="27.4286" height="27.4286" fill="white" transform="translate(6.85715 6.85714)"/>
</clipPath>
</defs>
</svg>
