<svg width="149" height="40" viewBox="0 0 149 40" fill="none" xmlns="http://www.w3.org/2000/svg">
<path d="M34.1422 5.85781C30.3647 2.08031 25.3422 0 20 0C14.6578 0 9.63531 2.08031 5.85781 5.85781C2.08031 9.63531 0 14.6578 0 20C0 25.3422 2.08039 30.3646 5.85781 34.1422C9.63523 37.9198 14.6578 40 20 40C25.3422 40 30.3647 37.9197 34.1422 34.1422C37.9197 30.3647 40 25.3422 40 20C40 14.6578 37.9196 9.63539 34.1422 5.85781Z" fill="#27847A"/>
<g clip-path="url(#clip0_35212_417)">
<path d="M20.5714 8V33.1429" stroke="white" stroke-width="2" stroke-linecap="round" stroke-linejoin="round"/>
<path d="M26.2857 12.5714H17.7143C16.6534 12.5714 15.636 12.9929 14.8859 13.743C14.1357 14.4931 13.7143 15.5106 13.7143 16.5714C13.7143 17.6323 14.1357 18.6497 14.8859 19.3999C15.636 20.15 16.6534 20.5714 17.7143 20.5714H23.4286C24.4894 20.5714 25.5069 20.9929 26.257 21.743C27.0072 22.4932 27.4286 23.5106 27.4286 24.5714C27.4286 25.6323 27.0072 26.6497 26.257 27.3999C25.5069 28.15 24.4894 28.5714 23.4286 28.5714H13.7143" stroke="white" stroke-width="2" stroke-linecap="round" stroke-linejoin="round"/>
</g>
<path d="M60.1651 14.768V26H57.4291V19.264L54.9171 26H52.7091L50.1811 19.248V26H47.4451V14.768H50.6771L53.8291 22.544L56.9491 14.768H60.1651ZM71.2526 17.072L65.6526 30.24H62.7086L64.7566 25.696L61.1246 17.072H64.1806L66.2446 22.656L68.2926 17.072H71.2526ZM82.9446 14.768V16.96H78.3686V19.328H81.7926V21.456H78.3686V26H75.6326V14.768H82.9446ZM85.7586 16.144C85.2786 16.144 84.884 16.0053 84.5746 15.728C84.276 15.44 84.1266 15.088 84.1266 14.672C84.1266 14.2453 84.276 13.8933 84.5746 13.616C84.884 13.328 85.2786 13.184 85.7586 13.184C86.228 13.184 86.612 13.328 86.9106 13.616C87.22 13.8933 87.3746 14.2453 87.3746 14.672C87.3746 15.088 87.22 15.44 86.9106 15.728C86.612 16.0053 86.228 16.144 85.7586 16.144ZM87.1186 17.072V26H84.3826V17.072H87.1186ZM94.5414 16.976C95.5867 16.976 96.4187 17.3173 97.0374 18C97.6667 18.672 97.9814 19.6 97.9814 20.784V26H95.2614V21.152C95.2614 20.5547 95.1067 20.0907 94.7974 19.76C94.488 19.4293 94.072 19.264 93.5494 19.264C93.0267 19.264 92.6107 19.4293 92.3014 19.76C91.992 20.0907 91.8374 20.5547 91.8374 21.152V26H89.1014V17.072H91.8374V18.256C92.1147 17.8613 92.488 17.552 92.9574 17.328C93.4267 17.0933 93.9547 16.976 94.5414 16.976ZM99.3386 21.52C99.3386 20.6027 99.5093 19.7973 99.8506 19.104C100.203 18.4107 100.677 17.8773 101.275 17.504C101.872 17.1307 102.539 16.944 103.275 16.944C103.904 16.944 104.453 17.072 104.923 17.328C105.403 17.584 105.771 17.92 106.027 18.336V17.072H108.763V26H106.027V24.736C105.76 25.152 105.387 25.488 104.907 25.744C104.437 26 103.888 26.128 103.259 26.128C102.533 26.128 101.872 25.9413 101.275 25.568C100.677 25.184 100.203 24.6453 99.8506 23.952C99.5093 23.248 99.3386 22.4373 99.3386 21.52ZM106.027 21.536C106.027 20.8533 105.835 20.3147 105.451 19.92C105.077 19.5253 104.619 19.328 104.075 19.328C103.531 19.328 103.067 19.5253 102.683 19.92C102.309 20.304 102.123 20.8373 102.123 21.52C102.123 22.2027 102.309 22.7467 102.683 23.152C103.067 23.5467 103.531 23.744 104.075 23.744C104.619 23.744 105.077 23.5467 105.451 23.152C105.835 22.7573 106.027 22.2187 106.027 21.536ZM116.182 16.976C117.227 16.976 118.059 17.3173 118.678 18C119.307 18.672 119.622 19.6 119.622 20.784V26H116.902V21.152C116.902 20.5547 116.747 20.0907 116.438 19.76C116.129 19.4293 115.713 19.264 115.19 19.264C114.667 19.264 114.251 19.4293 113.942 19.76C113.633 20.0907 113.478 20.5547 113.478 21.152V26H110.742V17.072H113.478V18.256C113.755 17.8613 114.129 17.552 114.598 17.328C115.067 17.0933 115.595 16.976 116.182 16.976ZM120.979 21.536C120.979 20.608 121.166 19.7973 121.539 19.104C121.923 18.4107 122.451 17.8773 123.123 17.504C123.806 17.1307 124.585 16.944 125.459 16.944C126.579 16.944 127.513 17.2373 128.259 17.824C129.017 18.4107 129.513 19.2373 129.747 20.304H126.835C126.59 19.6213 126.115 19.28 125.411 19.28C124.91 19.28 124.51 19.4773 124.211 19.872C123.913 20.256 123.763 20.8107 123.763 21.536C123.763 22.2613 123.913 22.8213 124.211 23.216C124.51 23.6 124.91 23.792 125.411 23.792C126.115 23.792 126.59 23.4507 126.835 22.768H129.747C129.513 23.8133 129.017 24.6347 128.259 25.232C127.502 25.8293 126.569 26.128 125.459 26.128C124.585 26.128 123.806 25.9413 123.123 25.568C122.451 25.1947 121.923 24.6613 121.539 23.968C121.166 23.2747 120.979 22.464 120.979 21.536ZM139.627 21.392C139.627 21.648 139.611 21.9147 139.579 22.192H133.387C133.429 22.7467 133.605 23.1733 133.915 23.472C134.235 23.76 134.624 23.904 135.083 23.904C135.765 23.904 136.24 23.616 136.507 23.04H139.419C139.269 23.6267 138.997 24.1547 138.603 24.624C138.219 25.0933 137.733 25.4613 137.147 25.728C136.56 25.9947 135.904 26.128 135.179 26.128C134.304 26.128 133.525 25.9413 132.843 25.568C132.16 25.1947 131.627 24.6613 131.243 23.968C130.859 23.2747 130.667 22.464 130.667 21.536C130.667 20.608 130.853 19.7973 131.227 19.104C131.611 18.4107 132.144 17.8773 132.827 17.504C133.509 17.1307 134.293 16.944 135.179 16.944C136.043 16.944 136.811 17.1253 137.483 17.488C138.155 17.8507 138.677 18.368 139.051 19.04C139.435 19.712 139.627 20.496 139.627 21.392ZM136.827 20.672C136.827 20.2027 136.667 19.8293 136.347 19.552C136.027 19.2747 135.627 19.136 135.147 19.136C134.688 19.136 134.299 19.2693 133.979 19.536C133.669 19.8027 133.477 20.1813 133.403 20.672H136.827ZM144.702 26.128C143.923 26.128 143.23 25.9947 142.622 25.728C142.014 25.4613 141.534 25.0987 141.182 24.64C140.83 24.1707 140.633 23.648 140.59 23.072H143.294C143.326 23.3813 143.47 23.632 143.726 23.824C143.982 24.016 144.297 24.112 144.67 24.112C145.011 24.112 145.273 24.048 145.454 23.92C145.646 23.7813 145.742 23.6053 145.742 23.392C145.742 23.136 145.609 22.9493 145.342 22.832C145.075 22.704 144.643 22.5653 144.046 22.416C143.406 22.2667 142.873 22.112 142.446 21.952C142.019 21.7813 141.651 21.52 141.342 21.168C141.033 20.8053 140.878 20.32 140.878 19.712C140.878 19.2 141.017 18.736 141.294 18.32C141.582 17.8933 141.998 17.5573 142.542 17.312C143.097 17.0667 143.753 16.944 144.51 16.944C145.63 16.944 146.51 17.2213 147.15 17.776C147.801 18.3307 148.174 19.0667 148.27 19.984H145.742C145.699 19.6747 145.561 19.4293 145.326 19.248C145.102 19.0667 144.803 18.976 144.43 18.976C144.11 18.976 143.865 19.04 143.694 19.168C143.523 19.2853 143.438 19.4507 143.438 19.664C143.438 19.92 143.571 20.112 143.838 20.24C144.115 20.368 144.542 20.496 145.118 20.624C145.779 20.7947 146.318 20.9653 146.734 21.136C147.15 21.296 147.513 21.5627 147.822 21.936C148.142 22.2987 148.307 22.7893 148.318 23.408C148.318 23.9307 148.169 24.4 147.87 24.816C147.582 25.2213 147.161 25.5413 146.606 25.776C146.062 26.0107 145.427 26.128 144.702 26.128Z" fill="white"/>
<defs>
<clipPath id="clip0_35212_417">
<rect width="27.4286" height="27.4286" fill="white" transform="translate(6.85715 6.85714)"/>
</clipPath>
</defs>
</svg>
